<?xml version="1.0" encoding="UTF-8" standalone="no"?><svg xmlns:dc="http://purl.org/dc/elements/1.1/" xmlns:cc="http://creativecommons.org/ns#" xmlns:rdf="http://www.w3.org/1999/02/22-rdf-syntax-ns#" xmlns="http://www.w3.org/2000/svg" viewBox="3.834 -.729 16 16"><title>No Throw</title><metadata><rdf:RDF><cc:Work><dc:format>image/svg+xml</dc:format><dc:type rdf:resource="http://purl.org/dc/dcmitype/StillImage"/><dc:title>No Throw</dc:title><dc:date>2016-06-23</dc:date><dc:creator><cc:Agent><dc:title>Ben Leggiero of Blue Husky Studios</dc:title></cc:Agent></dc:creator><dc:rights><cc:Agent><dc:title>BH-1-PS</dc:title></cc:Agent></dc:rights><dc:publisher><cc:Agent><dc:title>Blue Husky Studios</dc:title></cc:Agent></dc:publisher><dc:source>https://github.com/BlueHuskyStudios/No-Throw</dc:source><dc:relation>https://thenounproject.com</dc:relation><dc:language>en_US</dc:language><dc:description>The logo for the No Throw project.</dc:description><dc:contributor><cc:Agent><dc:title>Ben Leggiero, Luboš Volkov, Miranda Dempster</dc:title></cc:Agent></dc:contributor><cc:license rdf:resource="https://github.com/BlueHuskyStudios/Licenses/blob/master/Licenses/BH-1-PS.txt"/></cc:Work></rdf:RDF></metadata><path d="M14.38 4.804c-.106 0-.192.085-.192.19s.086.19.19.19c.106 0 .192-.085.192-.19s-.086-.19-.19-.19zm1.007.9c-.21 0-.38.17-.38.38s.17.38.38.38.38-.17.38-.38-.17-.38-.38-.38zm-.983.58c-.14 0-.254.112-.254.253 0 .14.114.254.254.254s.254-.11.254-.25-.114-.25-.254-.25zm.793.72a.19.19 0 0 0-.175.19.19.19 0 0 0 .19.188.19.19 0 0 0 .188-.19.19.19 0 0 0-.19-.19.19.19 0 0 0-.013 0zm.948.187c-.14 0-.254.12-.254.26s.12.257.26.257.256-.114.256-.254-.113-.254-.253-.254zm-1.518.46c-.14 0-.254.113-.254.254 0 .14.114.254.254.254s.254-.113.254-.253-.11-.254-.25-.254zm-.072 1.088c-.095 0-.18.04-.246.097l.53.53c.05-.066.09-.15.09-.245 0-.21-.17-.38-.38-.38zm1.338.077c-.14 0-.254.113-.254.254 0 .14.11.254.25.254s.25-.114.25-.254-.115-.254-.255-.254zm1.318.15a.318.318 0 0 0-.29.317.318.318 0 0 0 .09.225c.08-.176.15-.355.21-.54a.318.318 0 0 0-.002 0z" fill="#7b2"/><path d="M13.854 2.308c-.533 0-.965.432-.965.965 0 .533.43.965.96.965s.96-.432.96-.965c0-.533-.43-.965-.964-.965zm-1.866 1.05c-.127 0-.248.024-.36.067l-.374.198-1.39.753 1.585 1.588.4-.21v.615l2.203 2.2c.063-.09.11-.197.11-.317 0-.16-.07-.305-.177-.408l.004-.007-1.06-1.21.047-1.364c.04-.11.02-.778.02-.9 0-.56-.453-1.017-1.014-1.017zm-3.422 1.75c-.13.088-.25.182-.36.313l-.01.01.003.007c-.13.17-.21.38-.21.61 0 .03 0 .06.002.093H7.99l.255 5.39v.037c0 .04.007.076.01.114.296.24.62.454.962.63.21-.14.286-.414.286-.742 0-.016 0-.033-.003-.05l.255-4.672.35-.18-1.54-1.548z"/><path d="M11.83.417C8.053.417 4.98 3.49 4.98 7.27c0 3.782 3.072 6.856 6.85 6.856 3.78 0 6.85-3.074 6.85-6.855 0-3.78-3.07-6.85-6.85-6.85zM5.913 7.27c0-1.44.52-2.763 1.38-3.79l8.327 8.332c-1.028.86-2.348 1.382-3.79 1.382-3.265 0-5.92-2.656-5.92-5.923zm10.375 3.887l-8.34-8.344c1.04-.91 2.397-1.463 3.884-1.463 3.265 0 5.917 2.655 5.917 5.92 0 1.486-.56 2.843-1.47 3.885z" fill="#b22"/><g font-weight="bold" font-size="5" font-family="Sans-serif"><text x="3.834" y="5.271" transform="matrix(.178 0 0 .178 11.176 15.452)">Vomiting man by Miranda Dempster</text><text x="3.834" y="10.271" transform="matrix(.178 0 0 .178 11.176 15.452)">from the Noun Project</text></g><g font-weight="bold" font-size="5" font-family="sans-serif"><text y="65" transform="matrix(.176 0 0 .176 -2.387 4.974)">&quot;No&quot; sign by Luboš Volkov</text><text y="70" transform="matrix(.176 0 0 .176 -2.387 4.974)">from the Noun Project</text></g></svg>